<svg width="24" height="24" viewBox="0 0 24 24" fill="none" xmlns="http://www.w3.org/2000/svg">
<path d="M10.852 14.772L10.469 15.695" stroke="white" stroke-width="2" stroke-linecap="round" stroke-linejoin="round"/>
<path d="M10.852 9.22805L10.469 8.30505" stroke="white" stroke-width="2" stroke-linecap="round" stroke-linejoin="round"/>
<path d="M13.1479 14.772L13.5299 15.696" stroke="white" stroke-width="2" stroke-linecap="round" stroke-linejoin="round"/>
<path d="M13.5309 8.30505L13.1479 9.22805" stroke="white" stroke-width="2" stroke-linecap="round" stroke-linejoin="round"/>
<path d="M14.772 10.852L15.695 10.469" stroke="white" stroke-width="2" stroke-linecap="round" stroke-linejoin="round"/>
<path d="M14.772 13.1479L15.695 13.5309" stroke="white" stroke-width="2" stroke-linecap="round" stroke-linejoin="round"/>
<path d="M17.598 6.50002C17.8281 6.10151 17.9635 5.65541 17.9936 5.19622C18.0237 4.73703 17.9478 4.27707 17.7717 3.85192C17.5956 3.42677 17.3241 3.04782 16.9781 2.7444C16.6321 2.44098 16.221 2.22122 15.7765 2.10212C15.332 1.98301 14.8661 1.96776 14.4147 2.05754C13.9634 2.14732 13.5388 2.33972 13.1737 2.61987C12.8086 2.90001 12.5129 3.26039 12.3094 3.67311C12.1059 4.08584 12 4.53985 12 5.00002C12.0006 4.33382 11.7795 3.68636 11.3714 3.15976C10.9633 2.63315 10.3916 2.25735 9.74633 2.09162C9.10107 1.9259 8.41899 1.97966 7.80767 2.24445C7.19634 2.50924 6.69055 2.96998 6.37004 3.55402C6.1062 4.03426 5.97893 4.57758 6.00204 5.12502C5.41418 5.27624 4.86846 5.55926 4.40619 5.95264C3.94393 6.34602 3.57726 6.83944 3.33395 7.39553C3.09064 7.95162 2.97708 8.55579 3.00187 9.16228C3.02666 9.76876 3.18915 10.3616 3.47704 10.896" stroke="white" stroke-width="1.5" stroke-linecap="round" stroke-linejoin="round"/>
<path d="M17.998 5.125C18.5859 5.27622 19.1316 5.55923 19.5939 5.95261C20.0562 6.34599 20.4228 6.83942 20.6661 7.39551C20.9094 7.9516 21.023 8.55577 20.9982 9.16225C20.9734 9.76874 20.8109 10.3616 20.523 10.896" stroke="white" stroke-width="1.5" stroke-linecap="round" stroke-linejoin="round"/>
<path d="M19.5049 10.2939C20.3641 10.6429 21.0753 11.2795 21.517 12.095C21.9586 12.9104 22.1032 13.854 21.926 14.7642C21.7488 15.6745 21.2609 16.4949 20.5456 17.0851C19.8304 17.6754 18.9322 17.9987 18.0049 17.9999" stroke="white" stroke-width="1.5" stroke-linecap="round" stroke-linejoin="round"/>
<path d="M4.03203 17.483C3.91165 18.4008 4.11325 19.3318 4.60248 20.1175C5.09171 20.9033 5.83829 21.495 6.71496 21.7919C7.59163 22.0888 8.54414 22.0725 9.41013 21.7458C10.2761 21.419 11.002 20.802 11.464 20C11.644 19.689 12.356 19.689 12.536 20C12.9981 20.8019 13.7238 21.4187 14.5897 21.7454C15.4556 22.0721 16.4079 22.0885 17.2845 21.7918C18.161 21.495 18.9076 20.9035 19.3969 20.118C19.8863 19.3325 20.0881 18.4017 19.968 17.484" stroke="white" stroke-width="1.5" stroke-linecap="round" stroke-linejoin="round"/>
<path d="M4.50004 10.291C3.63893 10.6387 2.92565 11.2753 2.48253 12.0914C2.03941 12.9075 1.89407 13.8524 2.07145 14.764C2.24882 15.6756 2.73785 16.497 3.45465 17.0875C4.17146 17.6779 5.07137 18.0005 6.00004 18" stroke="white" stroke-width="1.5" stroke-linecap="round" stroke-linejoin="round"/>
<path d="M6.00195 5.125C6.02234 5.6089 6.15958 6.08068 6.40195 6.5" stroke="white" stroke-width="2" stroke-linecap="round" stroke-linejoin="round"/>
<path d="M9.22793 10.852L8.30493 10.469" stroke="white" stroke-width="2" stroke-linecap="round" stroke-linejoin="round"/>
<path d="M9.22793 13.1479L8.30493 13.5309" stroke="white" stroke-width="2" stroke-linecap="round" stroke-linejoin="round"/>
<path d="M12 15C13.6569 15 15 13.6569 15 12C15 10.3431 13.6569 9 12 9C10.3431 9 9 10.3431 9 12C9 13.6569 10.3431 15 12 15Z" stroke="white" stroke-width="1.5" stroke-linecap="round" stroke-linejoin="round"/>
</svg>
