<svg width="24" height="24" viewBox="0 0 24 24" fill="none" xmlns="http://www.w3.org/2000/svg">
<path d="M18.518 17.3472C17.2546 18.4146 15.654 19.0002 14 19.0002" stroke="white" stroke-width="1.5" stroke-linecap="round" stroke-linejoin="round"/>
<path d="M18.8 4C19.5894 5.54846 20.0007 7.26194 20 9" stroke="white" stroke-width="1.5" stroke-linecap="round" stroke-linejoin="round"/>
<path d="M9 9H9.01" stroke="white" stroke-width="1.5" stroke-linecap="round" stroke-linejoin="round"/>
<path d="M20 18C21.1046 18 22 17.1046 22 16C22 14.8954 21.1046 14 20 14C18.8954 14 18 14.8954 18 16C18 17.1046 18.8954 18 20 18Z" stroke="white" stroke-width="1.5" stroke-linecap="round" stroke-linejoin="round"/>
<path d="M9 16C12.866 16 16 12.866 16 9C16 5.13401 12.866 2 9 2C5.13401 2 2 5.13401 2 9C2 12.866 5.13401 16 9 16Z" stroke="white" stroke-width="1.5" stroke-linecap="round" stroke-linejoin="round"/>
<path d="M12 16H6C4.89543 16 4 16.8954 4 18V20C4 21.1046 4.89543 22 6 22H12C13.1046 22 14 21.1046 14 20V18C14 16.8954 13.1046 16 12 16Z" stroke="white" stroke-width="1.5" stroke-linecap="round" stroke-linejoin="round"/>
</svg>
