<svg width="24" height="24" viewBox="0 0 24 24" fill="none" xmlns="http://www.w3.org/2000/svg">
<path d="M11 2C8.61305 2 6.32387 2.94821 4.63604 4.63604C2.94821 6.32387 2 8.61305 2 11" stroke="white" stroke-width="1.5" stroke-linecap="round" stroke-linejoin="round"/>
<path d="M11 6C9.67392 6 8.40215 6.52678 7.46447 7.46447C6.52678 8.40215 6 9.67392 6 11" stroke="white" stroke-width="1.5" stroke-linecap="round" stroke-linejoin="round"/>
<path d="M10.168 16.568C9.96147 16.6628 9.7288 16.6845 9.50831 16.6294C9.28782 16.5744 9.09267 16.4458 8.955 16.265L8.6 15.8C8.41371 15.5516 8.17214 15.35 7.89443 15.2111C7.61672 15.0723 7.31049 15 7 15H4C3.46957 15 2.96086 15.2107 2.58579 15.5858C2.21071 15.9609 2 16.4696 2 17V20C2 20.5304 2.21071 21.0391 2.58579 21.4142C2.96086 21.7893 3.46957 22 4 22C8.7739 22 13.3523 20.1036 16.7279 16.7279C20.1036 13.3523 22 8.7739 22 4C22 3.46957 21.7893 2.96086 21.4142 2.58579C21.0391 2.21071 20.5304 2 20 2H17C16.4696 2 15.9609 2.21071 15.5858 2.58579C15.2107 2.96086 15 3.46957 15 4V7C15 7.31049 15.0723 7.61672 15.2111 7.89443C15.35 8.17214 15.5516 8.41371 15.8 8.6L16.268 8.951C16.4516 9.09118 16.581 9.29059 16.6342 9.51535C16.6874 9.74012 16.6612 9.97638 16.56 10.184C15.1933 12.9599 12.9456 15.2048 10.168 16.568Z" stroke="white" stroke-width="1.5" stroke-linecap="round" stroke-linejoin="round"/>
</svg>
